<svg xmlns="http://www.w3.org/2000/svg" viewBox="0 0 32 32">
  <defs>
    <linearGradient id="accent" x1="0" y1="16" x2="32" y2="16" gradientUnits="userSpaceOnUse">
      <stop offset="0%" stop-color="#2563eb"/>
      <stop offset="40%" stop-color="#d946ef"/>
      <stop offset="70%" stop-color="#f59e0b"/>
      <stop offset="100%" stop-color="#10b981"/>
    </linearGradient>
  </defs>
  <rect width="32" height="32" rx="6" ry="6" fill="#0f151a"/>
  <g fill="url(#accent)">
    <rect x="6" y="7" width="8" height="2" rx="1"/>
    <rect x="6" y="23" width="8" height="2" rx="1"/>
    <rect x="6" y="9" width="2" height="14" rx="1"/>
    <rect x="12" y="9" width="2" height="14" rx="1"/>
    <rect x="18" y="7" width="8" height="2" rx="1"/>
    <rect x="18" y="23" width="8" height="2" rx="1"/>
    <rect x="18" y="9" width="2" height="14" rx="1"/>
    <rect x="24" y="9" width="2" height="14" rx="1"/>
  </g>
  <g fill="#94b0ff" opacity="0.75">
    <rect x="8" y="9" width="2" height="2" rx="1"/>
    <rect x="10" y="9" width="2" height="2" rx="1"/>
    <rect x="8" y="21" width="2" height="2" rx="1"/>
    <rect x="10" y="21" width="2" height="2" rx="1"/>
    <rect x="20" y="9" width="2" height="2" rx="1"/>
    <rect x="22" y="9" width="2" height="2" rx="1"/>
    <rect x="20" y="21" width="2" height="2" rx="1"/>
    <rect x="22" y="21" width="2" height="2" rx="1"/>
  </g>
</svg>
